<?xml version="1.0" encoding="utf-8" standalone="no"?>
<!DOCTYPE svg PUBLIC "-//W3C//DTD SVG 1.1//EN"
  "http://www.w3.org/Graphics/SVG/1.1/DTD/svg11.dtd">
<svg xmlns:xlink="http://www.w3.org/1999/xlink" width="720pt" height="216pt" viewBox="0 0 720 216" xmlns="http://www.w3.org/2000/svg" version="1.1">
 <metadata>
  <rdf:RDF xmlns:dc="http://purl.org/dc/elements/1.1/" xmlns:cc="http://creativecommons.org/ns#" xmlns:rdf="http://www.w3.org/1999/02/22-rdf-syntax-ns#">
   <cc:Work>
    <dc:type rdf:resource="http://purl.org/dc/dcmitype/StillImage"/>
    <dc:date>2024-03-12T09:00:12.012921</dc:date>
    <dc:format>image/svg+xml</dc:format>
    <dc:creator>
     <cc:Agent>
      <dc:title>Matplotlib v3.8.3, https://matplotlib.org/</dc:title>
     </cc:Agent>
    </dc:creator>
   </cc:Work>
  </rdf:RDF>
 </metadata>
 <defs>
  <style type="text/css">*{stroke-linejoin: round; stroke-linecap: butt}</style>
 </defs>
 <g id="figure_1">
  <g id="patch_1">
   <path d="M 0 216 
L 720 216 
L 720 0 
L 0 0 
z
" style="fill: #ffffff"/>
  </g>
  <g id="axes_1">
   <g id="patch_2">
    <path d="M 90 192.24 
L 648 192.24 
L 648 25.92 
L 90 25.92 
z
" style="fill: #ffffff"/>
   </g>
   <g id="PathCollection_1">
    <defs>
     <path id="m9bf6481c11" d="M 0 3 
C 0.795609 3 1.55874 2.683901 2.12132 2.12132 
C 2.683901 1.55874 3 0.795609 3 0 
C 3 -0.795609 2.683901 -1.55874 2.12132 -2.12132 
C 1.55874 -2.683901 0.795609 -3 0 -3 
C -0.795609 -3 -1.55874 -2.683901 -2.12132 -2.12132 
C -2.683901 -1.55874 -3 -0.795609 -3 0 
C -3 0.795609 -2.683901 1.55874 -2.12132 2.12132 
C -1.55874 2.683901 -0.795609 3 0 3 
z
" style="stroke: #1f77b4"/>
    </defs>
    <g clip-path="url(#pcb98cfd7d9)">
     <use xlink:href="#m9bf6481c11" x="346.076793" y="119.079719" style="fill: #1f77b4; stroke: #1f77b4"/>
     <use xlink:href="#m9bf6481c11" x="486.622051" y="112.894828" style="fill: #1f77b4; stroke: #1f77b4"/>
     <use xlink:href="#m9bf6481c11" x="426.21549" y="101.630812" style="fill: #1f77b4; stroke: #1f77b4"/>
     <use xlink:href="#m9bf6481c11" x="298.36632" y="90.363235" style="fill: #1f77b4; stroke: #1f77b4"/>
     <use xlink:href="#m9bf6481c11" x="290.515486" y="120.510183" style="fill: #1f77b4; stroke: #1f77b4"/>
     <use xlink:href="#m9bf6481c11" x="430.582873" y="74.951752" style="fill: #1f77b4; stroke: #1f77b4"/>
     <use xlink:href="#m9bf6481c11" x="281.102398" y="152.133294" style="fill: #1f77b4; stroke: #1f77b4"/>
     <use xlink:href="#m9bf6481c11" x="428.949231" y="92.334588" style="fill: #1f77b4; stroke: #1f77b4"/>
     <use xlink:href="#m9bf6481c11" x="405.802896" y="74.754813" style="fill: #1f77b4; stroke: #1f77b4"/>
     <use xlink:href="#m9bf6481c11" x="351.125663" y="125.639425" style="fill: #1f77b4; stroke: #1f77b4"/>
     <use xlink:href="#m9bf6481c11" x="330.167594" y="124.738166" style="fill: #1f77b4; stroke: #1f77b4"/>
     <use xlink:href="#m9bf6481c11" x="397.24487" y="91.96911" style="fill: #1f77b4; stroke: #1f77b4"/>
     <use xlink:href="#m9bf6481c11" x="222.308466" y="159.774293" style="fill: #1f77b4; stroke: #1f77b4"/>
     <use xlink:href="#m9bf6481c11" x="341.635132" y="131.637893" style="fill: #1f77b4; stroke: #1f77b4"/>
     <use xlink:href="#m9bf6481c11" x="452.645658" y="80.59819" style="fill: #1f77b4; stroke: #1f77b4"/>
     <use xlink:href="#m9bf6481c11" x="507.883882" y="54.536742" style="fill: #1f77b4; stroke: #1f77b4"/>
     <use xlink:href="#m9bf6481c11" x="364.970714" y="102.033514" style="fill: #1f77b4; stroke: #1f77b4"/>
     <use xlink:href="#m9bf6481c11" x="571.739779" y="61.068893" style="fill: #1f77b4; stroke: #1f77b4"/>
     <use xlink:href="#m9bf6481c11" x="536.861275" y="33.48" style="fill: #1f77b4; stroke: #1f77b4"/>
     <use xlink:href="#m9bf6481c11" x="311.865159" y="109.761135" style="fill: #1f77b4; stroke: #1f77b4"/>
     <use xlink:href="#m9bf6481c11" x="486.842825" y="59.776266" style="fill: #1f77b4; stroke: #1f77b4"/>
     <use xlink:href="#m9bf6481c11" x="583.311919" y="60.189457" style="fill: #1f77b4; stroke: #1f77b4"/>
     <use xlink:href="#m9bf6481c11" x="337.817671" y="79.860951" style="fill: #1f77b4; stroke: #1f77b4"/>
     <use xlink:href="#m9bf6481c11" x="416.825352" y="92.660629" style="fill: #1f77b4; stroke: #1f77b4"/>
     <use xlink:href="#m9bf6481c11" x="463.944369" y="60.597963" style="fill: #1f77b4; stroke: #1f77b4"/>
     <use xlink:href="#m9bf6481c11" x="465.674913" y="42.837809" style="fill: #1f77b4; stroke: #1f77b4"/>
     <use xlink:href="#m9bf6481c11" x="589.085039" y="46.556174" style="fill: #1f77b4; stroke: #1f77b4"/>
     <use xlink:href="#m9bf6481c11" x="418.992827" y="96.495386" style="fill: #1f77b4; stroke: #1f77b4"/>
     <use xlink:href="#m9bf6481c11" x="347.301234" y="80.135598" style="fill: #1f77b4; stroke: #1f77b4"/>
     <use xlink:href="#m9bf6481c11" x="545.118774" y="57.812049" style="fill: #1f77b4; stroke: #1f77b4"/>
     <use xlink:href="#m9bf6481c11" x="289.707592" y="139.404167" style="fill: #1f77b4; stroke: #1f77b4"/>
     <use xlink:href="#m9bf6481c11" x="323.010438" y="111.679256" style="fill: #1f77b4; stroke: #1f77b4"/>
     <use xlink:href="#m9bf6481c11" x="273.605441" y="139.404675" style="fill: #1f77b4; stroke: #1f77b4"/>
     <use xlink:href="#m9bf6481c11" x="423.672247" y="67.370089" style="fill: #1f77b4; stroke: #1f77b4"/>
     <use xlink:href="#m9bf6481c11" x="385.00025" y="140.470307" style="fill: #1f77b4; stroke: #1f77b4"/>
     <use xlink:href="#m9bf6481c11" x="432.57284" y="71.028767" style="fill: #1f77b4; stroke: #1f77b4"/>
     <use xlink:href="#m9bf6481c11" x="399.046817" y="71.763529" style="fill: #1f77b4; stroke: #1f77b4"/>
     <use xlink:href="#m9bf6481c11" x="341.488294" y="104.868175" style="fill: #1f77b4; stroke: #1f77b4"/>
     <use xlink:href="#m9bf6481c11" x="389.359616" y="131.56606" style="fill: #1f77b4; stroke: #1f77b4"/>
     <use xlink:href="#m9bf6481c11" x="252.122529" y="120.411279" style="fill: #1f77b4; stroke: #1f77b4"/>
     <use xlink:href="#m9bf6481c11" x="494.806655" y="93.962828" style="fill: #1f77b4; stroke: #1f77b4"/>
     <use xlink:href="#m9bf6481c11" x="425.985724" y="91.146095" style="fill: #1f77b4; stroke: #1f77b4"/>
     <use xlink:href="#m9bf6481c11" x="204.424498" y="140.636962" style="fill: #1f77b4; stroke: #1f77b4"/>
     <use xlink:href="#m9bf6481c11" x="619.60062" y="68.944162" style="fill: #1f77b4; stroke: #1f77b4"/>
     <use xlink:href="#m9bf6481c11" x="402.55811" y="86.196974" style="fill: #1f77b4; stroke: #1f77b4"/>
     <use xlink:href="#m9bf6481c11" x="362.316576" y="141.817976" style="fill: #1f77b4; stroke: #1f77b4"/>
     <use xlink:href="#m9bf6481c11" x="513.301997" y="48.092098" style="fill: #1f77b4; stroke: #1f77b4"/>
     <use xlink:href="#m9bf6481c11" x="294.059116" y="121.041625" style="fill: #1f77b4; stroke: #1f77b4"/>
     <use xlink:href="#m9bf6481c11" x="569.444871" y="62.6138" style="fill: #1f77b4; stroke: #1f77b4"/>
     <use xlink:href="#m9bf6481c11" x="427.083975" y="122.284043" style="fill: #1f77b4; stroke: #1f77b4"/>
     <use xlink:href="#m9bf6481c11" x="288.463082" y="100.952986" style="fill: #1f77b4; stroke: #1f77b4"/>
     <use xlink:href="#m9bf6481c11" x="234.533487" y="157.649127" style="fill: #1f77b4; stroke: #1f77b4"/>
     <use xlink:href="#m9bf6481c11" x="432.875788" y="123.677467" style="fill: #1f77b4; stroke: #1f77b4"/>
     <use xlink:href="#m9bf6481c11" x="478.647828" y="105.684843" style="fill: #1f77b4; stroke: #1f77b4"/>
     <use xlink:href="#m9bf6481c11" x="503.741877" y="80.539125" style="fill: #1f77b4; stroke: #1f77b4"/>
     <use xlink:href="#m9bf6481c11" x="426.178436" y="87.810109" style="fill: #1f77b4; stroke: #1f77b4"/>
     <use xlink:href="#m9bf6481c11" x="424.591548" y="120.737469" style="fill: #1f77b4; stroke: #1f77b4"/>
     <use xlink:href="#m9bf6481c11" x="202.319524" y="184.68" style="fill: #1f77b4; stroke: #1f77b4"/>
     <use xlink:href="#m9bf6481c11" x="538.447995" y="58.544034" style="fill: #1f77b4; stroke: #1f77b4"/>
     <use xlink:href="#m9bf6481c11" x="364.207186" y="101.55859" style="fill: #1f77b4; stroke: #1f77b4"/>
     <use xlink:href="#m9bf6481c11" x="292.302405" y="121.567699" style="fill: #1f77b4; stroke: #1f77b4"/>
     <use xlink:href="#m9bf6481c11" x="415.710849" y="105.52155" style="fill: #1f77b4; stroke: #1f77b4"/>
     <use xlink:href="#m9bf6481c11" x="510.36624" y="86.569659" style="fill: #1f77b4; stroke: #1f77b4"/>
     <use xlink:href="#m9bf6481c11" x="175.548886" y="158.225342" style="fill: #1f77b4; stroke: #1f77b4"/>
     <use xlink:href="#m9bf6481c11" x="115.363636" y="175.237013" style="fill: #1f77b4; stroke: #1f77b4"/>
     <use xlink:href="#m9bf6481c11" x="230.920675" y="136.998962" style="fill: #1f77b4; stroke: #1f77b4"/>
     <use xlink:href="#m9bf6481c11" x="380.931519" y="129.849789" style="fill: #1f77b4; stroke: #1f77b4"/>
     <use xlink:href="#m9bf6481c11" x="400.193722" y="132.051145" style="fill: #1f77b4; stroke: #1f77b4"/>
     <use xlink:href="#m9bf6481c11" x="512.476769" y="83.729454" style="fill: #1f77b4; stroke: #1f77b4"/>
     <use xlink:href="#m9bf6481c11" x="580.331948" y="41.203907" style="fill: #1f77b4; stroke: #1f77b4"/>
     <use xlink:href="#m9bf6481c11" x="622.636364" y="46.713087" style="fill: #1f77b4; stroke: #1f77b4"/>
     <use xlink:href="#m9bf6481c11" x="305.832371" y="112.679389" style="fill: #1f77b4; stroke: #1f77b4"/>
     <use xlink:href="#m9bf6481c11" x="390.892331" y="131.972529" style="fill: #1f77b4; stroke: #1f77b4"/>
     <use xlink:href="#m9bf6481c11" x="541.048161" y="81.915794" style="fill: #1f77b4; stroke: #1f77b4"/>
     <use xlink:href="#m9bf6481c11" x="313.164136" y="115.147171" style="fill: #1f77b4; stroke: #1f77b4"/>
     <use xlink:href="#m9bf6481c11" x="212.425994" y="155.79847" style="fill: #1f77b4; stroke: #1f77b4"/>
     <use xlink:href="#m9bf6481c11" x="397.462685" y="79.736478" style="fill: #1f77b4; stroke: #1f77b4"/>
     <use xlink:href="#m9bf6481c11" x="483.829366" y="97.203446" style="fill: #1f77b4; stroke: #1f77b4"/>
     <use xlink:href="#m9bf6481c11" x="540.43527" y="96.005905" style="fill: #1f77b4; stroke: #1f77b4"/>
     <use xlink:href="#m9bf6481c11" x="389.803485" y="85.572956" style="fill: #1f77b4; stroke: #1f77b4"/>
     <use xlink:href="#m9bf6481c11" x="474.820173" y="76.7298" style="fill: #1f77b4; stroke: #1f77b4"/>
     <use xlink:href="#m9bf6481c11" x="458.215601" y="89.687209" style="fill: #1f77b4; stroke: #1f77b4"/>
     <use xlink:href="#m9bf6481c11" x="367.975554" y="109.351567" style="fill: #1f77b4; stroke: #1f77b4"/>
     <use xlink:href="#m9bf6481c11" x="271.270406" y="127.578958" style="fill: #1f77b4; stroke: #1f77b4"/>
     <use xlink:href="#m9bf6481c11" x="373.038911" y="93.941851" style="fill: #1f77b4; stroke: #1f77b4"/>
     <use xlink:href="#m9bf6481c11" x="352.098587" y="131.987682" style="fill: #1f77b4; stroke: #1f77b4"/>
     <use xlink:href="#m9bf6481c11" x="343.155465" y="110.077758" style="fill: #1f77b4; stroke: #1f77b4"/>
     <use xlink:href="#m9bf6481c11" x="460.584057" y="76.538785" style="fill: #1f77b4; stroke: #1f77b4"/>
     <use xlink:href="#m9bf6481c11" x="396.694016" y="76.22251" style="fill: #1f77b4; stroke: #1f77b4"/>
     <use xlink:href="#m9bf6481c11" x="330.288866" y="93.618172" style="fill: #1f77b4; stroke: #1f77b4"/>
     <use xlink:href="#m9bf6481c11" x="254.012626" y="121.401075" style="fill: #1f77b4; stroke: #1f77b4"/>
     <use xlink:href="#m9bf6481c11" x="361.519073" y="96.532049" style="fill: #1f77b4; stroke: #1f77b4"/>
     <use xlink:href="#m9bf6481c11" x="317.175659" y="133.843642" style="fill: #1f77b4; stroke: #1f77b4"/>
     <use xlink:href="#m9bf6481c11" x="400.341141" y="104.461768" style="fill: #1f77b4; stroke: #1f77b4"/>
     <use xlink:href="#m9bf6481c11" x="388.708859" y="117.179643" style="fill: #1f77b4; stroke: #1f77b4"/>
     <use xlink:href="#m9bf6481c11" x="261.341384" y="129.08092" style="fill: #1f77b4; stroke: #1f77b4"/>
     <use xlink:href="#m9bf6481c11" x="345.741468" y="84.862829" style="fill: #1f77b4; stroke: #1f77b4"/>
     <use xlink:href="#m9bf6481c11" x="421.379657" y="98.962606" style="fill: #1f77b4; stroke: #1f77b4"/>
     <use xlink:href="#m9bf6481c11" x="214.140536" y="114.474423" style="fill: #1f77b4; stroke: #1f77b4"/>
     <use xlink:href="#m9bf6481c11" x="259.712898" y="140.511632" style="fill: #1f77b4; stroke: #1f77b4"/>
    </g>
   </g>
   <g id="matplotlib.axis_1">
    <g id="xtick_1">
     <g id="line2d_1">
      <defs>
       <path id="mdd049904dc" d="M 0 0 
L 0 3.5 
" style="stroke: #000000; stroke-width: 0.8"/>
      </defs>
      <g>
       <use xlink:href="#mdd049904dc" x="173.528993" y="192.24" style="stroke: #000000; stroke-width: 0.8"/>
      </g>
     </g>
     <g id="text_1">
      <!-- −2 -->
      <g transform="translate(166.1579 206.838437) scale(0.1 -0.1)">
       <defs>
        <path id="DejaVuSans-2212" d="M 678 2272 
L 4684 2272 
L 4684 1741 
L 678 1741 
L 678 2272 
z
" transform="scale(0.015625)"/>
        <path id="DejaVuSans-32" d="M 1228 531 
L 3431 531 
L 3431 0 
L 469 0 
L 469 531 
Q 828 903 1448 1529 
Q 2069 2156 2228 2338 
Q 2531 2678 2651 2914 
Q 2772 3150 2772 3378 
Q 2772 3750 2511 3984 
Q 2250 4219 1831 4219 
Q 1534 4219 1204 4116 
Q 875 4013 500 3803 
L 500 4441 
Q 881 4594 1212 4672 
Q 1544 4750 1819 4750 
Q 2544 4750 2975 4387 
Q 3406 4025 3406 3419 
Q 3406 3131 3298 2873 
Q 3191 2616 2906 2266 
Q 2828 2175 2409 1742 
Q 1991 1309 1228 531 
z
" transform="scale(0.015625)"/>
       </defs>
       <use xlink:href="#DejaVuSans-2212"/>
       <use xlink:href="#DejaVuSans-32" x="83.789062"/>
      </g>
     </g>
    </g>
    <g id="xtick_2">
     <g id="line2d_2">
      <g>
       <use xlink:href="#mdd049904dc" x="278.712408" y="192.24" style="stroke: #000000; stroke-width: 0.8"/>
      </g>
     </g>
     <g id="text_2">
      <!-- −1 -->
      <g transform="translate(271.341314 206.838437) scale(0.1 -0.1)">
       <defs>
        <path id="DejaVuSans-31" d="M 794 531 
L 1825 531 
L 1825 4091 
L 703 3866 
L 703 4441 
L 1819 4666 
L 2450 4666 
L 2450 531 
L 3481 531 
L 3481 0 
L 794 0 
L 794 531 
z
" transform="scale(0.015625)"/>
       </defs>
       <use xlink:href="#DejaVuSans-2212"/>
       <use xlink:href="#DejaVuSans-31" x="83.789062"/>
      </g>
     </g>
    </g>
    <g id="xtick_3">
     <g id="line2d_3">
      <g>
       <use xlink:href="#mdd049904dc" x="383.895822" y="192.24" style="stroke: #000000; stroke-width: 0.8"/>
      </g>
     </g>
     <g id="text_3">
      <!-- 0 -->
      <g transform="translate(380.714572 206.838437) scale(0.1 -0.1)">
       <defs>
        <path id="DejaVuSans-30" d="M 2034 4250 
Q 1547 4250 1301 3770 
Q 1056 3291 1056 2328 
Q 1056 1369 1301 889 
Q 1547 409 2034 409 
Q 2525 409 2770 889 
Q 3016 1369 3016 2328 
Q 3016 3291 2770 3770 
Q 2525 4250 2034 4250 
z
M 2034 4750 
Q 2819 4750 3233 4129 
Q 3647 3509 3647 2328 
Q 3647 1150 3233 529 
Q 2819 -91 2034 -91 
Q 1250 -91 836 529 
Q 422 1150 422 2328 
Q 422 3509 836 4129 
Q 1250 4750 2034 4750 
z
" transform="scale(0.015625)"/>
       </defs>
       <use xlink:href="#DejaVuSans-30"/>
      </g>
     </g>
    </g>
    <g id="xtick_4">
     <g id="line2d_4">
      <g>
       <use xlink:href="#mdd049904dc" x="489.079237" y="192.24" style="stroke: #000000; stroke-width: 0.8"/>
      </g>
     </g>
     <g id="text_4">
      <!-- 1 -->
      <g transform="translate(485.897987 206.838437) scale(0.1 -0.1)">
       <use xlink:href="#DejaVuSans-31"/>
      </g>
     </g>
    </g>
    <g id="xtick_5">
     <g id="line2d_5">
      <g>
       <use xlink:href="#mdd049904dc" x="594.262651" y="192.24" style="stroke: #000000; stroke-width: 0.8"/>
      </g>
     </g>
     <g id="text_5">
      <!-- 2 -->
      <g transform="translate(591.081401 206.838437) scale(0.1 -0.1)">
       <use xlink:href="#DejaVuSans-32"/>
      </g>
     </g>
    </g>
    <g id="text_6">
     <!-- Features -->
     <g transform="translate(347.505469 220.516562) scale(0.1 -0.1)">
      <defs>
       <path id="DejaVuSans-46" d="M 628 4666 
L 3309 4666 
L 3309 4134 
L 1259 4134 
L 1259 2759 
L 3109 2759 
L 3109 2228 
L 1259 2228 
L 1259 0 
L 628 0 
L 628 4666 
z
" transform="scale(0.015625)"/>
       <path id="DejaVuSans-65" d="M 3597 1894 
L 3597 1613 
L 953 1613 
Q 991 1019 1311 708 
Q 1631 397 2203 397 
Q 2534 397 2845 478 
Q 3156 559 3463 722 
L 3463 178 
Q 3153 47 2828 -22 
Q 2503 -91 2169 -91 
Q 1331 -91 842 396 
Q 353 884 353 1716 
Q 353 2575 817 3079 
Q 1281 3584 2069 3584 
Q 2775 3584 3186 3129 
Q 3597 2675 3597 1894 
z
M 3022 2063 
Q 3016 2534 2758 2815 
Q 2500 3097 2075 3097 
Q 1594 3097 1305 2825 
Q 1016 2553 972 2059 
L 3022 2063 
z
" transform="scale(0.015625)"/>
       <path id="DejaVuSans-61" d="M 2194 1759 
Q 1497 1759 1228 1600 
Q 959 1441 959 1056 
Q 959 750 1161 570 
Q 1363 391 1709 391 
Q 2188 391 2477 730 
Q 2766 1069 2766 1631 
L 2766 1759 
L 2194 1759 
z
M 3341 1997 
L 3341 0 
L 2766 0 
L 2766 531 
Q 2569 213 2275 61 
Q 1981 -91 1556 -91 
Q 1019 -91 701 211 
Q 384 513 384 1019 
Q 384 1609 779 1909 
Q 1175 2209 1959 2209 
L 2766 2209 
L 2766 2266 
Q 2766 2663 2505 2880 
Q 2244 3097 1772 3097 
Q 1472 3097 1187 3025 
Q 903 2953 641 2809 
L 641 3341 
Q 956 3463 1253 3523 
Q 1550 3584 1831 3584 
Q 2591 3584 2966 3190 
Q 3341 2797 3341 1997 
z
" transform="scale(0.015625)"/>
       <path id="DejaVuSans-74" d="M 1172 4494 
L 1172 3500 
L 2356 3500 
L 2356 3053 
L 1172 3053 
L 1172 1153 
Q 1172 725 1289 603 
Q 1406 481 1766 481 
L 2356 481 
L 2356 0 
L 1766 0 
Q 1100 0 847 248 
Q 594 497 594 1153 
L 594 3053 
L 172 3053 
L 172 3500 
L 594 3500 
L 594 4494 
L 1172 4494 
z
" transform="scale(0.015625)"/>
       <path id="DejaVuSans-75" d="M 544 1381 
L 544 3500 
L 1119 3500 
L 1119 1403 
Q 1119 906 1312 657 
Q 1506 409 1894 409 
Q 2359 409 2629 706 
Q 2900 1003 2900 1516 
L 2900 3500 
L 3475 3500 
L 3475 0 
L 2900 0 
L 2900 538 
Q 2691 219 2414 64 
Q 2138 -91 1772 -91 
Q 1169 -91 856 284 
Q 544 659 544 1381 
z
M 1991 3584 
L 1991 3584 
z
" transform="scale(0.015625)"/>
       <path id="DejaVuSans-72" d="M 2631 2963 
Q 2534 3019 2420 3045 
Q 2306 3072 2169 3072 
Q 1681 3072 1420 2755 
Q 1159 2438 1159 1844 
L 1159 0 
L 581 0 
L 581 3500 
L 1159 3500 
L 1159 2956 
Q 1341 3275 1631 3429 
Q 1922 3584 2338 3584 
Q 2397 3584 2469 3576 
Q 2541 3569 2628 3553 
L 2631 2963 
z
" transform="scale(0.015625)"/>
       <path id="DejaVuSans-73" d="M 2834 3397 
L 2834 2853 
Q 2591 2978 2328 3040 
Q 2066 3103 1784 3103 
Q 1356 3103 1142 2972 
Q 928 2841 928 2578 
Q 928 2378 1081 2264 
Q 1234 2150 1697 2047 
L 1894 2003 
Q 2506 1872 2764 1633 
Q 3022 1394 3022 966 
Q 3022 478 2636 193 
Q 2250 -91 1575 -91 
Q 1294 -91 989 -36 
Q 684 19 347 128 
L 347 722 
Q 666 556 975 473 
Q 1284 391 1588 391 
Q 1994 391 2212 530 
Q 2431 669 2431 922 
Q 2431 1156 2273 1281 
Q 2116 1406 1581 1522 
L 1381 1569 
Q 847 1681 609 1914 
Q 372 2147 372 2553 
Q 372 3047 722 3315 
Q 1072 3584 1716 3584 
Q 2034 3584 2315 3537 
Q 2597 3491 2834 3397 
z
" transform="scale(0.015625)"/>
      </defs>
      <use xlink:href="#DejaVuSans-46"/>
      <use xlink:href="#DejaVuSans-65" x="52.019531"/>
      <use xlink:href="#DejaVuSans-61" x="113.542969"/>
      <use xlink:href="#DejaVuSans-74" x="174.822266"/>
      <use xlink:href="#DejaVuSans-75" x="214.03125"/>
      <use xlink:href="#DejaVuSans-72" x="277.410156"/>
      <use xlink:href="#DejaVuSans-65" x="316.273438"/>
      <use xlink:href="#DejaVuSans-73" x="377.796875"/>
     </g>
    </g>
   </g>
   <g id="matplotlib.axis_2">
    <g id="ytick_1">
     <g id="line2d_6">
      <defs>
       <path id="mc0c8042435" d="M 0 0 
L -3.5 0 
" style="stroke: #000000; stroke-width: 0.8"/>
      </defs>
      <g>
       <use xlink:href="#mc0c8042435" x="90" y="189.344334" style="stroke: #000000; stroke-width: 0.8"/>
      </g>
     </g>
     <g id="text_7">
      <!-- −150 -->
      <g transform="translate(55.532812 193.143553) scale(0.1 -0.1)">
       <defs>
        <path id="DejaVuSans-35" d="M 691 4666 
L 3169 4666 
L 3169 4134 
L 1269 4134 
L 1269 2991 
Q 1406 3038 1543 3061 
Q 1681 3084 1819 3084 
Q 2600 3084 3056 2656 
Q 3513 2228 3513 1497 
Q 3513 744 3044 326 
Q 2575 -91 1722 -91 
Q 1428 -91 1123 -41 
Q 819 9 494 109 
L 494 744 
Q 775 591 1075 516 
Q 1375 441 1709 441 
Q 2250 441 2565 725 
Q 2881 1009 2881 1497 
Q 2881 1984 2565 2268 
Q 2250 2553 1709 2553 
Q 1456 2553 1204 2497 
Q 953 2441 691 2322 
L 691 4666 
z
" transform="scale(0.015625)"/>
       </defs>
       <use xlink:href="#DejaVuSans-2212"/>
       <use xlink:href="#DejaVuSans-31" x="83.789062"/>
       <use xlink:href="#DejaVuSans-35" x="147.412109"/>
       <use xlink:href="#DejaVuSans-30" x="211.035156"/>
      </g>
     </g>
    </g>
    <g id="ytick_2">
     <g id="line2d_7">
      <g>
       <use xlink:href="#mc0c8042435" x="90" y="160.215972" style="stroke: #000000; stroke-width: 0.8"/>
      </g>
     </g>
     <g id="text_8">
      <!-- −100 -->
      <g transform="translate(55.532812 164.015191) scale(0.1 -0.1)">
       <use xlink:href="#DejaVuSans-2212"/>
       <use xlink:href="#DejaVuSans-31" x="83.789062"/>
       <use xlink:href="#DejaVuSans-30" x="147.412109"/>
       <use xlink:href="#DejaVuSans-30" x="211.035156"/>
      </g>
     </g>
    </g>
    <g id="ytick_3">
     <g id="line2d_8">
      <g>
       <use xlink:href="#mc0c8042435" x="90" y="131.087611" style="stroke: #000000; stroke-width: 0.8"/>
      </g>
     </g>
     <g id="text_9">
      <!-- −50 -->
      <g transform="translate(61.895313 134.88683) scale(0.1 -0.1)">
       <use xlink:href="#DejaVuSans-2212"/>
       <use xlink:href="#DejaVuSans-35" x="83.789062"/>
       <use xlink:href="#DejaVuSans-30" x="147.412109"/>
      </g>
     </g>
    </g>
    <g id="ytick_4">
     <g id="line2d_9">
      <g>
       <use xlink:href="#mc0c8042435" x="90" y="101.959249" style="stroke: #000000; stroke-width: 0.8"/>
      </g>
     </g>
     <g id="text_10">
      <!-- 0 -->
      <g transform="translate(76.6375 105.758468) scale(0.1 -0.1)">
       <use xlink:href="#DejaVuSans-30"/>
      </g>
     </g>
    </g>
    <g id="ytick_5">
     <g id="line2d_10">
      <g>
       <use xlink:href="#mc0c8042435" x="90" y="72.830888" style="stroke: #000000; stroke-width: 0.8"/>
      </g>
     </g>
     <g id="text_11">
      <!-- 50 -->
      <g transform="translate(70.275 76.630107) scale(0.1 -0.1)">
       <use xlink:href="#DejaVuSans-35"/>
       <use xlink:href="#DejaVuSans-30" x="63.623047"/>
      </g>
     </g>
    </g>
    <g id="ytick_6">
     <g id="line2d_11">
      <g>
       <use xlink:href="#mc0c8042435" x="90" y="43.702526" style="stroke: #000000; stroke-width: 0.8"/>
      </g>
     </g>
     <g id="text_12">
      <!-- 100 -->
      <g transform="translate(63.9125 47.501745) scale(0.1 -0.1)">
       <use xlink:href="#DejaVuSans-31"/>
       <use xlink:href="#DejaVuSans-30" x="63.623047"/>
       <use xlink:href="#DejaVuSans-30" x="127.246094"/>
      </g>
     </g>
    </g>
    <g id="text_13">
     <!-- Target (y) -->
     <g transform="translate(49.453125 133.001875) rotate(-90) scale(0.1 -0.1)">
      <defs>
       <path id="DejaVuSans-54" d="M -19 4666 
L 3928 4666 
L 3928 4134 
L 2272 4134 
L 2272 0 
L 1638 0 
L 1638 4134 
L -19 4134 
L -19 4666 
z
" transform="scale(0.015625)"/>
       <path id="DejaVuSans-67" d="M 2906 1791 
Q 2906 2416 2648 2759 
Q 2391 3103 1925 3103 
Q 1463 3103 1205 2759 
Q 947 2416 947 1791 
Q 947 1169 1205 825 
Q 1463 481 1925 481 
Q 2391 481 2648 825 
Q 2906 1169 2906 1791 
z
M 3481 434 
Q 3481 -459 3084 -895 
Q 2688 -1331 1869 -1331 
Q 1566 -1331 1297 -1286 
Q 1028 -1241 775 -1147 
L 775 -588 
Q 1028 -725 1275 -790 
Q 1522 -856 1778 -856 
Q 2344 -856 2625 -561 
Q 2906 -266 2906 331 
L 2906 616 
Q 2728 306 2450 153 
Q 2172 0 1784 0 
Q 1141 0 747 490 
Q 353 981 353 1791 
Q 353 2603 747 3093 
Q 1141 3584 1784 3584 
Q 2172 3584 2450 3431 
Q 2728 3278 2906 2969 
L 2906 3500 
L 3481 3500 
L 3481 434 
z
" transform="scale(0.015625)"/>
       <path id="DejaVuSans-20" transform="scale(0.015625)"/>
       <path id="DejaVuSans-28" d="M 1984 4856 
Q 1566 4138 1362 3434 
Q 1159 2731 1159 2009 
Q 1159 1288 1364 580 
Q 1569 -128 1984 -844 
L 1484 -844 
Q 1016 -109 783 600 
Q 550 1309 550 2009 
Q 550 2706 781 3412 
Q 1013 4119 1484 4856 
L 1984 4856 
z
" transform="scale(0.015625)"/>
       <path id="DejaVuSans-79" d="M 2059 -325 
Q 1816 -950 1584 -1140 
Q 1353 -1331 966 -1331 
L 506 -1331 
L 506 -850 
L 844 -850 
Q 1081 -850 1212 -737 
Q 1344 -625 1503 -206 
L 1606 56 
L 191 3500 
L 800 3500 
L 1894 763 
L 2988 3500 
L 3597 3500 
L 2059 -325 
z
" transform="scale(0.015625)"/>
       <path id="DejaVuSans-29" d="M 513 4856 
L 1013 4856 
Q 1481 4119 1714 3412 
Q 1947 2706 1947 2009 
Q 1947 1309 1714 600 
Q 1481 -109 1013 -844 
L 513 -844 
Q 928 -128 1133 580 
Q 1338 1288 1338 2009 
Q 1338 2731 1133 3434 
Q 928 4138 513 4856 
z
" transform="scale(0.015625)"/>
      </defs>
      <use xlink:href="#DejaVuSans-54"/>
      <use xlink:href="#DejaVuSans-61" x="44.583984"/>
      <use xlink:href="#DejaVuSans-72" x="105.863281"/>
      <use xlink:href="#DejaVuSans-67" x="145.226562"/>
      <use xlink:href="#DejaVuSans-65" x="208.703125"/>
      <use xlink:href="#DejaVuSans-74" x="270.226562"/>
      <use xlink:href="#DejaVuSans-20" x="309.435547"/>
      <use xlink:href="#DejaVuSans-28" x="341.222656"/>
      <use xlink:href="#DejaVuSans-79" x="380.236328"/>
      <use xlink:href="#DejaVuSans-29" x="439.416016"/>
     </g>
    </g>
   </g>
   <g id="line2d_12">
    <path d="M 346.076793 101.880941 
L 486.622051 101.880941 
L 426.21549 101.880941 
L 298.36632 101.880941 
L 290.515486 101.880941 
L 430.582873 101.880941 
L 281.102398 101.880941 
L 428.949231 101.880941 
L 405.802896 101.880941 
L 351.125663 101.880941 
L 330.167594 101.880941 
L 397.24487 101.880941 
L 222.308466 101.880941 
L 341.635132 101.880941 
L 452.645658 101.880941 
L 507.883882 101.880941 
L 364.970714 101.880941 
L 571.739779 101.880941 
L 536.861275 101.880941 
L 311.865159 101.880941 
L 486.842825 101.880941 
L 583.311919 101.880941 
L 337.817671 101.880941 
L 416.825352 101.880941 
L 463.944369 101.880941 
L 465.674913 101.880941 
L 589.085039 101.880941 
L 418.992827 101.880941 
L 347.301234 101.880941 
L 545.118774 101.880941 
L 289.707592 101.880941 
L 323.010438 101.880941 
L 273.605441 101.880941 
L 423.672247 101.880941 
L 385.00025 101.880941 
L 432.57284 101.880941 
L 399.046817 101.880941 
L 341.488294 101.880941 
L 389.359616 101.880941 
L 252.122529 101.880941 
L 494.806655 101.880941 
L 425.985724 101.880941 
L 204.424498 101.880941 
L 619.60062 101.880941 
L 402.55811 101.880941 
L 362.316576 101.880941 
L 513.301997 101.880941 
L 294.059116 101.880941 
L 569.444871 101.880941 
L 427.083975 101.880941 
L 288.463082 101.880941 
L 234.533487 101.880941 
L 432.875788 101.880941 
L 478.647828 101.880941 
L 503.741877 101.880941 
L 426.178436 101.880941 
L 424.591548 101.880941 
L 202.319524 101.880941 
L 538.447995 101.880941 
L 364.207186 101.880941 
L 292.302405 101.880941 
L 415.710849 101.880941 
L 510.36624 101.880941 
L 175.548886 101.880941 
L 115.363636 101.880941 
L 230.920675 101.880941 
L 380.931519 101.880941 
L 400.193722 101.880941 
L 512.476769 101.880941 
L 580.331948 101.880941 
L 622.636364 101.880941 
L 305.832371 101.880941 
L 390.892331 101.880941 
L 541.048161 101.880941 
L 313.164136 101.880941 
L 212.425994 101.880941 
L 397.462685 101.880941 
L 483.829366 101.880941 
L 540.43527 101.880941 
L 389.803485 101.880941 
L 474.820173 101.880941 
L 458.215601 101.880941 
L 367.975554 101.880941 
L 271.270406 101.880941 
L 373.038911 101.880941 
L 352.098587 101.880941 
L 343.155465 101.880941 
L 460.584057 101.880941 
L 396.694016 101.880941 
L 330.288866 101.880941 
L 254.012626 101.880941 
L 361.519073 101.880941 
L 317.175659 101.880941 
L 400.341141 101.880941 
L 388.708859 101.880941 
L 261.341384 101.880941 
L 345.741468 101.880941 
L 421.379657 101.880941 
L 214.140536 101.880941 
L 259.712898 101.880941 
" clip-path="url(#pcb98cfd7d9)" style="fill: none; stroke: #008000; stroke-width: 1.5; stroke-linecap: square"/>
   </g>
   <g id="line2d_13">
    <path d="M 346.076793 112.407426 
L 486.622051 78.867347 
L 426.21549 93.282923 
L 298.36632 123.793175 
L 290.515486 125.666718 
L 430.582873 92.24068 
L 281.102398 127.913081 
L 428.949231 92.630536 
L 405.802896 98.154237 
L 351.125663 111.202551 
L 330.167594 116.204038 
L 397.24487 100.196546 
L 222.308466 141.943815 
L 341.635132 113.467395 
L 452.645658 86.97556 
L 507.883882 73.79337 
L 364.970714 107.898532 
L 571.739779 58.554636 
L 536.861275 66.878131 
L 311.865159 120.571777 
L 486.842825 78.814661 
L 583.311919 55.793031 
L 337.817671 114.378404 
L 416.825352 95.523809 
L 463.944369 84.279207 
L 465.674913 83.866226 
L 589.085039 54.415319 
L 418.992827 95.006558 
L 347.301234 112.115222 
L 545.118774 64.90754 
L 289.707592 125.859516 
L 323.010438 117.91204 
L 273.605441 129.702174 
L 423.672247 93.889849 
L 385.00025 103.118633 
L 432.57284 91.765789 
L 399.046817 99.766524 
L 341.488294 113.502437 
L 389.359616 102.078303 
L 252.122529 134.828911 
L 494.806655 76.914153 
L 425.985724 93.337755 
L 204.424498 146.211691 
L 619.60062 47.133003 
L 402.55811 98.928581 
L 362.316576 108.531923 
L 513.301997 72.500377 
L 294.059116 124.821057 
L 569.444871 59.102299 
L 427.083975 93.075666 
L 288.463082 126.156509 
L 234.533487 139.026405 
L 432.875788 91.693493 
L 478.647828 80.770336 
L 503.741877 74.781829 
L 426.178436 93.291766 
L 424.591548 93.670465 
L 202.319524 146.714027 
L 538.447995 66.499472 
L 364.207186 108.080743 
L 292.302405 125.240283 
L 415.710849 95.789777 
L 510.36624 73.200974 
L 175.548886 153.10264 
L 115.363636 167.465401 
L 230.920675 139.888575 
L 380.931519 104.089605 
L 400.193722 99.492824 
L 512.476769 72.697312 
L 580.331948 56.504179 
L 622.636364 46.408545 
L 305.832371 122.011457 
L 390.892331 101.712532 
L 541.048161 65.878962 
L 313.164136 120.261786 
L 212.425994 144.302193 
L 397.462685 100.144566 
L 483.829366 79.533801 
L 540.43527 66.025224 
L 389.803485 101.972377 
L 474.820173 81.683778 
L 458.215601 85.646335 
L 367.975554 107.18145 
L 271.270406 130.259413 
L 373.038911 105.973117 
L 352.098587 110.97037 
L 343.155465 113.104579 
L 460.584057 85.081121 
L 396.694016 100.328003 
L 330.288866 116.175097 
L 254.012626 134.377853 
L 361.519073 108.722241 
L 317.175659 119.304466 
L 400.341141 99.457644 
L 388.708859 102.233601 
L 261.341384 132.6289 
L 345.741468 112.487449 
L 421.379657 94.436959 
L 214.140536 143.89303 
L 259.712898 133.017526 
" clip-path="url(#pcb98cfd7d9)" style="fill: none; stroke: #ff0000; stroke-width: 1.5; stroke-linecap: square"/>
   </g>
   <g id="patch_3">
    <path d="M 90 192.24 
L 90 25.92 
" style="fill: none; stroke: #000000; stroke-width: 0.8; stroke-linejoin: miter; stroke-linecap: square"/>
   </g>
   <g id="patch_4">
    <path d="M 648 192.24 
L 648 25.92 
" style="fill: none; stroke: #000000; stroke-width: 0.8; stroke-linejoin: miter; stroke-linecap: square"/>
   </g>
   <g id="patch_5">
    <path d="M 90 192.24 
L 648 192.24 
" style="fill: none; stroke: #000000; stroke-width: 0.8; stroke-linejoin: miter; stroke-linecap: square"/>
   </g>
   <g id="patch_6">
    <path d="M 90 25.92 
L 648 25.92 
" style="fill: none; stroke: #000000; stroke-width: 0.8; stroke-linejoin: miter; stroke-linecap: square"/>
   </g>
   <g id="text_14">
    <!-- Scatter Example Plot -->
    <g transform="translate(306.19875 19.92) scale(0.12 -0.12)">
     <defs>
      <path id="DejaVuSans-53" d="M 3425 4513 
L 3425 3897 
Q 3066 4069 2747 4153 
Q 2428 4238 2131 4238 
Q 1616 4238 1336 4038 
Q 1056 3838 1056 3469 
Q 1056 3159 1242 3001 
Q 1428 2844 1947 2747 
L 2328 2669 
Q 3034 2534 3370 2195 
Q 3706 1856 3706 1288 
Q 3706 609 3251 259 
Q 2797 -91 1919 -91 
Q 1588 -91 1214 -16 
Q 841 59 441 206 
L 441 856 
Q 825 641 1194 531 
Q 1563 422 1919 422 
Q 2459 422 2753 634 
Q 3047 847 3047 1241 
Q 3047 1584 2836 1778 
Q 2625 1972 2144 2069 
L 1759 2144 
Q 1053 2284 737 2584 
Q 422 2884 422 3419 
Q 422 4038 858 4394 
Q 1294 4750 2059 4750 
Q 2388 4750 2728 4690 
Q 3069 4631 3425 4513 
z
" transform="scale(0.015625)"/>
      <path id="DejaVuSans-63" d="M 3122 3366 
L 3122 2828 
Q 2878 2963 2633 3030 
Q 2388 3097 2138 3097 
Q 1578 3097 1268 2742 
Q 959 2388 959 1747 
Q 959 1106 1268 751 
Q 1578 397 2138 397 
Q 2388 397 2633 464 
Q 2878 531 3122 666 
L 3122 134 
Q 2881 22 2623 -34 
Q 2366 -91 2075 -91 
Q 1284 -91 818 406 
Q 353 903 353 1747 
Q 353 2603 823 3093 
Q 1294 3584 2113 3584 
Q 2378 3584 2631 3529 
Q 2884 3475 3122 3366 
z
" transform="scale(0.015625)"/>
      <path id="DejaVuSans-45" d="M 628 4666 
L 3578 4666 
L 3578 4134 
L 1259 4134 
L 1259 2753 
L 3481 2753 
L 3481 2222 
L 1259 2222 
L 1259 531 
L 3634 531 
L 3634 0 
L 628 0 
L 628 4666 
z
" transform="scale(0.015625)"/>
      <path id="DejaVuSans-78" d="M 3513 3500 
L 2247 1797 
L 3578 0 
L 2900 0 
L 1881 1375 
L 863 0 
L 184 0 
L 1544 1831 
L 300 3500 
L 978 3500 
L 1906 2253 
L 2834 3500 
L 3513 3500 
z
" transform="scale(0.015625)"/>
      <path id="DejaVuSans-6d" d="M 3328 2828 
Q 3544 3216 3844 3400 
Q 4144 3584 4550 3584 
Q 5097 3584 5394 3201 
Q 5691 2819 5691 2113 
L 5691 0 
L 5113 0 
L 5113 2094 
Q 5113 2597 4934 2840 
Q 4756 3084 4391 3084 
Q 3944 3084 3684 2787 
Q 3425 2491 3425 1978 
L 3425 0 
L 2847 0 
L 2847 2094 
Q 2847 2600 2669 2842 
Q 2491 3084 2119 3084 
Q 1678 3084 1418 2786 
Q 1159 2488 1159 1978 
L 1159 0 
L 581 0 
L 581 3500 
L 1159 3500 
L 1159 2956 
Q 1356 3278 1631 3431 
Q 1906 3584 2284 3584 
Q 2666 3584 2933 3390 
Q 3200 3197 3328 2828 
z
" transform="scale(0.015625)"/>
      <path id="DejaVuSans-70" d="M 1159 525 
L 1159 -1331 
L 581 -1331 
L 581 3500 
L 1159 3500 
L 1159 2969 
Q 1341 3281 1617 3432 
Q 1894 3584 2278 3584 
Q 2916 3584 3314 3078 
Q 3713 2572 3713 1747 
Q 3713 922 3314 415 
Q 2916 -91 2278 -91 
Q 1894 -91 1617 61 
Q 1341 213 1159 525 
z
M 3116 1747 
Q 3116 2381 2855 2742 
Q 2594 3103 2138 3103 
Q 1681 3103 1420 2742 
Q 1159 2381 1159 1747 
Q 1159 1113 1420 752 
Q 1681 391 2138 391 
Q 2594 391 2855 752 
Q 3116 1113 3116 1747 
z
" transform="scale(0.015625)"/>
      <path id="DejaVuSans-6c" d="M 603 4863 
L 1178 4863 
L 1178 0 
L 603 0 
L 603 4863 
z
" transform="scale(0.015625)"/>
      <path id="DejaVuSans-50" d="M 1259 4147 
L 1259 2394 
L 2053 2394 
Q 2494 2394 2734 2622 
Q 2975 2850 2975 3272 
Q 2975 3691 2734 3919 
Q 2494 4147 2053 4147 
L 1259 4147 
z
M 628 4666 
L 2053 4666 
Q 2838 4666 3239 4311 
Q 3641 3956 3641 3272 
Q 3641 2581 3239 2228 
Q 2838 1875 2053 1875 
L 1259 1875 
L 1259 0 
L 628 0 
L 628 4666 
z
" transform="scale(0.015625)"/>
      <path id="DejaVuSans-6f" d="M 1959 3097 
Q 1497 3097 1228 2736 
Q 959 2375 959 1747 
Q 959 1119 1226 758 
Q 1494 397 1959 397 
Q 2419 397 2687 759 
Q 2956 1122 2956 1747 
Q 2956 2369 2687 2733 
Q 2419 3097 1959 3097 
z
M 1959 3584 
Q 2709 3584 3137 3096 
Q 3566 2609 3566 1747 
Q 3566 888 3137 398 
Q 2709 -91 1959 -91 
Q 1206 -91 779 398 
Q 353 888 353 1747 
Q 353 2609 779 3096 
Q 1206 3584 1959 3584 
z
" transform="scale(0.015625)"/>
     </defs>
     <use xlink:href="#DejaVuSans-53"/>
     <use xlink:href="#DejaVuSans-63" x="63.476562"/>
     <use xlink:href="#DejaVuSans-61" x="118.457031"/>
     <use xlink:href="#DejaVuSans-74" x="179.736328"/>
     <use xlink:href="#DejaVuSans-74" x="218.945312"/>
     <use xlink:href="#DejaVuSans-65" x="258.154297"/>
     <use xlink:href="#DejaVuSans-72" x="319.677734"/>
     <use xlink:href="#DejaVuSans-20" x="360.791016"/>
     <use xlink:href="#DejaVuSans-45" x="392.578125"/>
     <use xlink:href="#DejaVuSans-78" x="455.761719"/>
     <use xlink:href="#DejaVuSans-61" x="514.941406"/>
     <use xlink:href="#DejaVuSans-6d" x="576.220703"/>
     <use xlink:href="#DejaVuSans-70" x="673.632812"/>
     <use xlink:href="#DejaVuSans-6c" x="737.109375"/>
     <use xlink:href="#DejaVuSans-65" x="764.892578"/>
     <use xlink:href="#DejaVuSans-20" x="826.416016"/>
     <use xlink:href="#DejaVuSans-50" x="858.203125"/>
     <use xlink:href="#DejaVuSans-6c" x="918.505859"/>
     <use xlink:href="#DejaVuSans-6f" x="946.289062"/>
     <use xlink:href="#DejaVuSans-74" x="1007.470703"/>
    </g>
   </g>
   <g id="legend_1">
    <g id="patch_7">
     <path d="M 97 77.954375 
L 197.451563 77.954375 
Q 199.451563 77.954375 199.451563 75.954375 
L 199.451563 32.92 
Q 199.451563 30.92 197.451563 30.92 
L 97 30.92 
Q 95 30.92 95 32.92 
L 95 75.954375 
Q 95 77.954375 97 77.954375 
z
" style="fill: #ffffff; opacity: 0.8; stroke: #cccccc; stroke-linejoin: miter"/>
    </g>
    <g id="PathCollection_2">
     <g>
      <use xlink:href="#m9bf6481c11" x="109" y="39.893438" style="fill: #1f77b4; stroke: #1f77b4"/>
     </g>
    </g>
    <g id="text_15">
     <!-- Random Data -->
     <g transform="translate(127 42.518438) scale(0.1 -0.1)">
      <defs>
       <path id="DejaVuSans-52" d="M 2841 2188 
Q 3044 2119 3236 1894 
Q 3428 1669 3622 1275 
L 4263 0 
L 3584 0 
L 2988 1197 
Q 2756 1666 2539 1819 
Q 2322 1972 1947 1972 
L 1259 1972 
L 1259 0 
L 628 0 
L 628 4666 
L 2053 4666 
Q 2853 4666 3247 4331 
Q 3641 3997 3641 3322 
Q 3641 2881 3436 2590 
Q 3231 2300 2841 2188 
z
M 1259 4147 
L 1259 2491 
L 2053 2491 
Q 2509 2491 2742 2702 
Q 2975 2913 2975 3322 
Q 2975 3731 2742 3939 
Q 2509 4147 2053 4147 
L 1259 4147 
z
" transform="scale(0.015625)"/>
       <path id="DejaVuSans-6e" d="M 3513 2113 
L 3513 0 
L 2938 0 
L 2938 2094 
Q 2938 2591 2744 2837 
Q 2550 3084 2163 3084 
Q 1697 3084 1428 2787 
Q 1159 2491 1159 1978 
L 1159 0 
L 581 0 
L 581 3500 
L 1159 3500 
L 1159 2956 
Q 1366 3272 1645 3428 
Q 1925 3584 2291 3584 
Q 2894 3584 3203 3211 
Q 3513 2838 3513 2113 
z
" transform="scale(0.015625)"/>
       <path id="DejaVuSans-64" d="M 2906 2969 
L 2906 4863 
L 3481 4863 
L 3481 0 
L 2906 0 
L 2906 525 
Q 2725 213 2448 61 
Q 2172 -91 1784 -91 
Q 1150 -91 751 415 
Q 353 922 353 1747 
Q 353 2572 751 3078 
Q 1150 3584 1784 3584 
Q 2172 3584 2448 3432 
Q 2725 3281 2906 2969 
z
M 947 1747 
Q 947 1113 1208 752 
Q 1469 391 1925 391 
Q 2381 391 2643 752 
Q 2906 1113 2906 1747 
Q 2906 2381 2643 2742 
Q 2381 3103 1925 3103 
Q 1469 3103 1208 2742 
Q 947 2381 947 1747 
z
" transform="scale(0.015625)"/>
       <path id="DejaVuSans-44" d="M 1259 4147 
L 1259 519 
L 2022 519 
Q 2988 519 3436 956 
Q 3884 1394 3884 2338 
Q 3884 3275 3436 3711 
Q 2988 4147 2022 4147 
L 1259 4147 
z
M 628 4666 
L 1925 4666 
Q 3281 4666 3915 4102 
Q 4550 3538 4550 2338 
Q 4550 1131 3912 565 
Q 3275 0 1925 0 
L 628 0 
L 628 4666 
z
" transform="scale(0.015625)"/>
      </defs>
      <use xlink:href="#DejaVuSans-52"/>
      <use xlink:href="#DejaVuSans-61" x="67.232422"/>
      <use xlink:href="#DejaVuSans-6e" x="128.511719"/>
      <use xlink:href="#DejaVuSans-64" x="191.890625"/>
      <use xlink:href="#DejaVuSans-6f" x="255.367188"/>
      <use xlink:href="#DejaVuSans-6d" x="316.548828"/>
      <use xlink:href="#DejaVuSans-20" x="413.960938"/>
      <use xlink:href="#DejaVuSans-44" x="445.748047"/>
      <use xlink:href="#DejaVuSans-61" x="522.75"/>
      <use xlink:href="#DejaVuSans-74" x="584.029297"/>
      <use xlink:href="#DejaVuSans-61" x="623.238281"/>
     </g>
    </g>
    <g id="line2d_14">
     <path d="M 99 53.696562 
L 109 53.696562 
L 119 53.696562 
" style="fill: none; stroke: #008000; stroke-width: 1.5; stroke-linecap: square"/>
    </g>
    <g id="text_16">
     <!-- Plot -->
     <g transform="translate(127 57.196562) scale(0.1 -0.1)">
      <use xlink:href="#DejaVuSans-50"/>
      <use xlink:href="#DejaVuSans-6c" x="60.302734"/>
      <use xlink:href="#DejaVuSans-6f" x="88.085938"/>
      <use xlink:href="#DejaVuSans-74" x="149.267578"/>
     </g>
    </g>
    <g id="line2d_15">
     <path d="M 99 68.374687 
L 109 68.374687 
L 119 68.374687 
" style="fill: none; stroke: #ff0000; stroke-width: 1.5; stroke-linecap: square"/>
    </g>
    <g id="text_17">
     <!-- Plot -->
     <g transform="translate(127 71.874687) scale(0.1 -0.1)">
      <use xlink:href="#DejaVuSans-50"/>
      <use xlink:href="#DejaVuSans-6c" x="60.302734"/>
      <use xlink:href="#DejaVuSans-6f" x="88.085938"/>
      <use xlink:href="#DejaVuSans-74" x="149.267578"/>
     </g>
    </g>
   </g>
  </g>
 </g>
 <defs>
  <clipPath id="pcb98cfd7d9">
   <rect x="90" y="25.92" width="558" height="166.32"/>
  </clipPath>
 </defs>
</svg>
